# xmcd
#
# Track frame offsets:
#	183
#	17863
#	25503
#	39860
#	50983
#	65333
#	77965
#	100438
#	111730
#	119378
#	133123
#	153018
#	166308
#	183525
#	193970
#	205735
#	215260
#
# Disc length: 3030
#
# Revision: 3
# Processed by: cddbd v1.5.1PL0 Copyright (c) Steve Scherf et al.
# Submitted via: CDex 1.51
# Normalized: r2:TDELIM( - )
#
DISCID=f40bd411
DTITLE=Lipidil - Sampler - Best of Jazz - CD1
DYEAR=1996
DGENRE=Jazz
TTITLE0=Louis Armstrong - Cabaret
TTITLE1=Tony Bennett - This can't be love
TTITLE2=Ray Charles - Blues is my middle name
TTITLE3=Nat King Cole - Sweet Georgia Brown
TTITLE4=Bing Crosby - Pennies from heaven
TTITLE5=Sammy Davis Junior - What I've got in mind
TTITLE6=Ella Fitzgerald and Duke Ellington - Imagine my frustration
TTITLE7=John Lee Hooker - Boom boom
TTITLE8=Frank Sinatra - S'wonderful
TTITLE9=Sarah Vaughan - Misty
TTITLE10=Nina Simone - My baby just cares for me
TTITLE11=Billy Holiday - Summertime
TTITLE12=Brook Benton - Rainy night in Georgia
TTITLE13=Miles Davis and Freddie Hubbard - Cool blues
TTITLE14=Fats Domino - Blueberry hill
TTITLE15=Al Jarreau - Ain't no sunshine
TTITLE16=The Platters - The great pretender
EXTD=YEAR: 1996
EXTT0=
EXTT1=
EXTT2=
EXTT3=
EXTT4=
EXTT5=
EXTT6=
EXTT7=
EXTT8=
EXTT9=
EXTT10=
EXTT11=
EXTT12=
EXTT13=
EXTT14=
EXTT15=
EXTT16=
PLAYORDER=
